<svg xmlns="http://www.w3.org/2000/svg" viewBox="-8 -5 110 110">
  <defs>
    <linearGradient id="gradient" x1="0" x2="0" y1="0" y2="1">
      <stop stop-color="#42f3ff"/>
      <stop offset="0.9" stop-color="#896bff"/>
      <stop offset="1.0" stop-color="#b485ff"/>
    </linearGradient>
  </defs>
  <path fill="url(#gradient)" d="M 68.397139,26.511691 C 61.787827,18.807773 51.982532,13.927084 41.036458,13.927084 21.134198,13.927084 5,30.061283 5,49.963542 5,69.865802 21.134198,86 41.036458,86 51.982532,86 61.787827,81.118186 68.397139,73.415393 L 45.541015,49.963542 68.397139,26.511691 z M 50.045573,22.415923 c 2.775933,0 5.024832,2.250026 5.024832,5.024833 0,2.774808 -2.250025,5.024833 -5.024832,5.024833 -2.774808,0 -5.024834,-2.250025 -5.024834,-5.024833 0,-2.774807 2.250026,-5.024833 5.024834,-5.024833 z"/>
  <path fill="url(#gradient)" d="m 72.226172,68.21011 0.02195,-11.777716 c 25.346594,0.732011 28.237966,-22.284397 14.977804,-36.698641 5.361263,9.777822 6.235366,24.652309 -14.932055,24.095869 L 72.317307,31.808106 54.070736,49.963542 72.22617,68.21011 z"/>
</svg>
